inDegrees=no
num_controls=7
num_derivatives=13
num_iterations=162
num_multipliers=7
num_parameters=0
num_slacks=7
num_states=26
objective=0.431693
objective_accelerations=0.049175
objective_balance=0.006764
objective_effort=0.030804
objective_height=0.343765
objective_ligament=0.001184
solver_duration=2018.780741
status=Solve_Succeeded
success=true
DataType=double
version=3
OpenSimVersion=4.5
endheader
time	/jointset/ground_pelvis/pelvis_tilt/value	/jointset/ground_pelvis/pelvis_tx/value	/jointset/ground_pelvis/pelvis_ty/value	/jointset/hip_l/hip_flexion_l/value	/jointset/hip_l/hip_adduction_l/value	/jointset/hip_l/hip_rotation_l/value	/jointset/back/lumbar_extension/value	/jointset/patellofemoral_l/patellar_flexion_l/value	/jointset/knee_l/knee_flexion_l/value	/jointset/knee_l/knee_adduction_l/value	/jointset/knee_l/knee_rotation_l/value	/jointset/ankle_l/ankle_angle_l/value	/jointset/subtalar_l/subtalar_angle_l/value	/jointset/ground_pelvis/pelvis_tilt/speed	/jointset/ground_pelvis/pelvis_tx/speed	/jointset/ground_pelvis/pelvis_ty/speed	/jointset/hip_l/hip_flexion_l/speed	/jointset/hip_l/hip_adduction_l/speed	/jointset/hip_l/hip_rotation_l/speed	/jointset/back/lumbar_extension/speed	/jointset/patellofemoral_l/patellar_flexion_l/speed	/jointset/knee_l/knee_flexion_l/speed	/jointset/knee_l/knee_adduction_l/speed	/jointset/knee_l/knee_rotation_l/speed	/jointset/ankle_l/ankle_angle_l/speed	/jointset/subtalar_l/subtalar_angle_l/speed	/forceset/tau_hip_flexion_l	/forceset/tau_hip_adduction_l	/forceset/tau_hip_rotation_l	/forceset/tau_knee_flexion_l	/forceset/tau_ankle_angle_l	/forceset/tau_subtalar_angle_l	/forceset/tau_lumbar_extension	lambda_cid13_p0	lambda_cid13_p1	lambda_cid13_p2	lambda_cid13_p3	lambda_cid13_p4	lambda_cid13_p5	lambda_cid14_p0	/jointset/ground_pelvis/pelvis_tilt/accel	/jointset/ground_pelvis/pelvis_tx/accel	/jointset/ground_pelvis/pelvis_ty/accel	/jointset/hip_l/hip_flexion_l/accel	/jointset/hip_l/hip_adduction_l/accel	/jointset/hip_l/hip_rotation_l/accel	/jointset/back/lumbar_extension/accel	/jointset/patellofemoral_l/patellar_flexion_l/accel	/jointset/knee_l/knee_flexion_l/accel	/jointset/knee_l/knee_adduction_l/accel	/jointset/knee_l/knee_rotation_l/accel	/jointset/ankle_l/ankle_angle_l/accel	/jointset/subtalar_l/subtalar_angle_l/accel	gamma_cid13_p0	gamma_cid13_p1	gamma_cid13_p2	gamma_cid13_p3	gamma_cid13_p4	gamma_cid13_p5	gamma_cid14_p0
1	-0.4472692241496459	-0.05337833376331251	0.5978791264827303	1.761048727839035	-0.2744504554785201	0.2166803463069835	-0.4363245356476509	1.406063023786672	1.406063023786659	-0.1744943139919645	0.1745296618550355	0.3084938877806916	0.04592207036683857	-0.01034365031505114	0.0003236878544962511	-0.004256511333416896	0.01909427690752218	0.001063665517796711	0.004006068600041612	0.0001443616509028402	0.01047865071458734	0.01047865071458732	-2.72361749972017e-05	-8.88199082367536e-06	0.002302451322919144	0.001951842718483466	-0.3291496688098083	0.007181408984240066	-0.01350862718424387	-0.3655873870551664	0.05040456481194624	0.01761028004621595	0.2943164232209822	-29.73093306647652	-1.268633637477766	-1.540971808789839	16.32083138327157	-726.5953795365044	-54.82838660628253	-0.03958214657319708	1.041109128902326	-0.01627367691203653	1.76012888981015	-5.564272437974005	-0.5677131092419814	-2.025601543081077	-0.02270230520513627	-5.44487380699166	-5.444873806991594	-0.06100768506205289	0.0163392868221363	-1.223087515554453	-1.042903959510118	7.452514757217893e-10	1.160028135804377e-09	-9.931619752855556e-09	-1.799500745394167e-09	2.453639981146912e-09	-6.28862696458155e-09	1.678477456700966e-09
1.01	-0.447320976701663	-0.05337589689749651	0.5979244760665388	1.760962001850162	-0.2744673760312777	0.2166171850161208	-0.4363237539821182	1.405895941429034	1.405895941429041	-0.1744945179532238	0.1745295621848108	0.3084561010546433	0.04589069025893762	-5.874476581484216e-06	0.0001670388092808612	0.01332490322136505	-0.03643979277332417	-0.004445667954412321	-0.01663575909887599	1.379757903045694e-05	-0.04389182167330357	-0.04389182167330346	-1.354203235061096e-05	-1.0674296926324e-05	-0.009857308397855157	-0.008223205490611396	-0.3290706525571571	0.007203462133533306	-0.01353273482591965	-0.3655624556052275	0.05060853088396091	0.01760484606030711	0.2942749145574278	-29.65631030433384	-1.280506459941874	-1.537745932701023	16.19954968361861	-726.4999268653827	-54.83086183606607	-0.03959110415785543	1.030259932759476	-0.01485606285330761	1.756917329942652	-5.548021893392431	-0.5422334666007954	-2.083093958461239	-0.007959539669940757	-5.432637390281473	-5.432637390281482	0.0325569778668497	-0.008391583962296081	-1.212046246453455	-1.004111064503489	-2.678983823345691e-09	-3.087934472208072e-09	4.240377341037351e-08	7.062416381463486e-09	-8.278167012323779e-09	2.931625004652325e-08	-7.304605394579742e-09
1.02	-0.4472693218710074	-0.05337492563103808	0.5981455937142208	1.760319925632429	-0.2745393279188356	0.2163476813332362	-0.4363242231736025	1.405185253660398	1.405185253660426	-0.1744945851702689	0.1745294539725979	0.3082967915221643	0.04575769850636686	0.01033782621949585	3.056798298503582e-05	0.03089710144136465	-0.09197576886427	-0.009942601442238633	-0.03726240980435914	-0.0001058097525079645	-0.09824243148494104	-0.09824243148494097	1.126678493669156e-07	-1.059038846220966e-05	-0.02200210996321098	-0.01837048621547904	-0.328991636304506	0.007225515282826542	-0.01355684246759542	-0.3655375241552885	0.05081249695597559	0.01759941207439825	0.2942334058938734	-29.59021929355736	-1.289641816787294	-1.536377279856582	16.12929973520865	-726.5113617456155	-54.78327345998372	-0.0395939248137878	1.042294100423861	-0.01223803312812358	1.758285622853681	-5.564653719993903	-0.5652331123654375	-2.022566144394181	-0.02051095713834391	-5.440901291740937	-5.440901291740938	-0.06101557355137546	0.01671452973548768	-1.220095884470756	-1.037350462664674	-5.52481488347427e-09	-8.232189007336207e-09	9.484952510220901e-08	1.425854237686744e-08	-1.866509042773009e-08	6.336876652404056e-08	-1.635369647095816e-08
1.03	-0.4471141326291849	-0.0533751875643496	0.5985423377105451	1.759122511192979	-0.2746661368849213	0.2158720582508288	-0.4363257696498188	1.403931222604255	1.403931222604262	-0.174494531065519	0.1745293644796734	0.3080160643334574	0.04552345534941965	0.02070799853477163	-7.654602667662378e-05	0.04844530701649192	-0.1475047607331444	-0.01541196619852597	-0.0578541182298165	-0.0001954879940737804	-0.1525542724056199	-0.15255427240562	1.082546634380879e-05	-5.846368169026036e-06	-0.03414521517714657	-0.02846511561319957	-0.3288249868631261	0.007297386662018652	-0.01363512362248852	-0.3652413510491696	0.05100671268410662	0.0176816076080137	0.2941572936587954	-29.50642623142898	-1.352138823905653	-1.512560392632949	15.99780598260018	-726.2884410539652	-54.78294395512638	-0.03962161763238117	1.035576086737746	-0.00898246104953896	1.752123531165478	-5.546668112056337	-0.5367260344326955	-2.076279863022778	-0.001996633164832336	-5.424894255987903	-5.424894255987907	0.03212147802499931	-0.007460054691526373	-1.211698301283038	-0.9935804154725667	-8.364743859532043e-09	-1.338558937845532e-08	1.472964029014792e-07	2.143767050358308e-08	-2.904849462295206e-08	9.740544258794983e-08	-2.54034611006539e-08
1.04	-0.446855002206278	-0.0533763275129906	0.5991143708638852	1.757369877596496	-0.2748474270740044	0.2151907567498867	-0.4363279729835506	1.402134359386154	1.40213435938614	-0.1744943684784894	0.1745293595483783	0.3076138500003254	0.04518865365106586	0.03112606243637983	-0.0001450350829123234	0.06595493284454854	-0.203019600270904	-0.02083884604170746	-0.0783980935113245	-0.0002371812556048612	-0.2068088638765608	-0.2068088638765608	2.180912381433539e-05	6.321937408783565e-06	-0.04629953884820531	-0.03848219449679312	-0.3286583374217462	0.007369258041210755	-0.0137134047773816	-0.3649451779430505	0.05120092841223766	0.01776380314162913	0.2940811814237173	-29.4312250551477	-1.411875366352056	-1.490618643596396	15.91707602644918	-726.1730169457159	-54.73303144354244	-0.03964315490655054	1.051872417690344	-0.004513042442931567	1.750569673439549	-5.56182325377091	-0.5567361297442684	-2.013019515604307	-0.01091396113139705	-5.429451401793335	-5.429451401793337	-0.06096140175615854	0.01819938679191576	-1.222339575895389	-1.021840359839279	-1.15247517737866e-08	-1.972234017470805e-08	1.982911087449121e-07	2.871251762240054e-08	-3.962190044995312e-08	1.278991539296322e-07	-3.414245407435638e-08
1.05	-0.4464914246061601	-0.05337795203950466	0.5998612686020903	1.755062216414285	-0.2750827155079288	0.2143043330799282	-0.4363303374568133	1.399795217841126	1.399795217841129	-0.1744941250902217	0.1745294877417985	0.3070899293081986	0.04475414388211103	0.04160042932049354	-0.000172755815731486	0.0834144912329562	-0.2585060688245894	-0.0262059464350764	-0.09887402939183512	-0.0002264858748745671	-0.2610122319320093	-0.2610122319320094	2.683800652956801e-05	1.864193950558523e-05	-0.0584971740581457	-0.04839935684736373	-0.3283606890177493	0.007505568415444779	-0.01384615412194423	-0.3644207317921975	0.05137713993330335	0.01792765921574895	0.2939251877817808	-29.34350996221097	-1.520264919652071	-1.448359053080155	15.81084917871542	-725.8343010088377	-54.72865823352787	-0.03969263158804306	1.046865904944144	-0.0008271564912829587	1.742120239902587	-5.541073550185497	-0.5247996531994117	-2.06302284629243	0.008445415984563429	-5.414688865344787	-5.414688865344787	0.03121213490276268	-0.007409611207698507	-1.220357343231922	-0.9736197438878393	-1.46947621548598e-08	-2.609607067174621e-08	2.492404342147251e-07	3.599035595972119e-08	-5.020124382794728e-08	1.58282147623745e-07	-4.287173543380908e-08
1.06	-0.4460227739209667	-0.05337963888690488	0.6007824561878518	1.752199887567734	-0.2753712954776001	0.2132135216067611	-0.4363323129985824	1.396914260743959	1.396914260743979	-0.1744938359928035	0.1745297075516143	0.3064436558940346	0.04422106937540612	0.05214067945149772	-0.000157499260145641	0.1008129023558124	-0.3139531331390007	-0.03149715319109361	-0.1192756541530655	-0.000160425361771439	-0.3151719743044247	-0.3151719743044247	3.095095394070226e-05	2.464521655195267e-05	-0.0707700832556285	-0.05819514204680992	-0.3280630406137522	0.0076418787896788	-0.01397890346650684	-0.3638962856413445	0.05155335145436914	0.01809151528986875	0.2937691941398444	-29.26456157240081	-1.625798307292608	-1.408064218858498	15.75533467721292	-725.604790025495	-54.6755721947362	-0.03973591600911885	1.065049067068439	0.004082415238069964	1.738340220329255	-5.553942405916091	-0.5415574022739233	-1.99815729174827	0.0001590653431695075	-5.420726265186691	-5.42072626518669	-0.06114458881697821	0.01693604178182902	-1.237394373403875	-0.9975649296143971	-1.986061862382077e-08	-3.273057377645038e-08	2.980112005175919e-07	4.646179308268843e-08	-6.068740303085505e-08	1.897544303627474e-07	-5.161564134124513e-08
1.07	-0.4454486480331881	-0.05338077892889592	0.6018772963372484	1.748783373976394	-0.2757123610086013	0.2119191687138564	-0.4363321576277814	1.393491990725716	1.393491990725723	-0.1744935583548184	0.1745299584369686	0.3056745168062062	0.04359079842578509	0.06266977924392957	-4.539660704067653e-05	0.1181425509560488	-0.3693347764949057	-0.03669993418697224	-0.1395773074793027	0.00032244169741255	-0.3692690211935022	-0.3692690211935027	2.227151210127995e-05	2.802644044671608e-05	-0.08304692580430204	-0.06782548108422654	-0.3282832761232567	0.007860130223988916	-0.01416638134490449	-0.3631329467607911	0.05190201072332482	0.01829981216911596	0.294210928130237	-29.13196194809072	-1.767489371288963	-1.353479910081361	15.38481203063124	-725.6408745269141	-54.62689920341639	-0.03979260199797353	1.044634415850813	0.01855264110371339	1.728376312808129	-5.528054111003964	-0.5072861118839819	-2.043574991690368	0.09183729178422197	-5.402230482469782	-5.402230482469786	0.02889845952237305	-0.007665548272698252	-1.221202792988612	-0.9407688263552542	-2.513263711873321e-08	-3.937894776454103e-08	3.466660860137063e-07	5.710310248148794e-08	-7.116860562870505e-08	2.212846540083928e-07	-6.036032515016966e-08
